<svg class="fill-black dark:fill-white" width="566" height="394" viewBox="0 0 566 394" fill="none" xmlns="http://www.w3.org/2000/svg">
<path d="M38.2071 43.292C37.8166 42.9015 37.1834 42.9015 36.7929 43.292L30.4289 49.656C30.0384 50.0465 30.0384 50.6797 30.4289 51.0702C30.8195 51.4607 31.4526 51.4607 31.8431 51.0702L37.5 45.4134L43.1569 51.0702C43.5474 51.4607 44.1805 51.4607 44.5711 51.0702C44.9616 50.6797 44.9616 50.0465 44.5711 49.656L38.2071 43.292ZM38.5 344.001L38.5 43.9991H36.5L36.5 344.001H38.5Z" class="fill-black dark:fill-white"/>
<path d="M537.707 343.707C538.098 343.317 538.098 342.683 537.707 342.293L531.343 335.929C530.953 335.538 530.319 335.538 529.929 335.929C529.538 336.319 529.538 336.953 529.929 337.343L535.586 343L529.929 348.657C529.538 349.047 529.538 349.681 529.929 350.071C530.319 350.462 530.953 350.462 531.343 350.071L537.707 343.707ZM37 344L537 344V342L37 342V344Z" class="fill-black dark:fill-white"/>
<path d="M258.523 352.455V367H256.761V352.455H258.523ZM261.827 367V356.091H263.446V357.795H263.588C263.816 357.213 264.183 356.761 264.689 356.439C265.196 356.112 265.804 355.949 266.515 355.949C267.234 355.949 267.833 356.112 268.311 356.439C268.794 356.761 269.171 357.213 269.441 357.795H269.554C269.834 357.232 270.253 356.785 270.811 356.453C271.37 356.117 272.04 355.949 272.821 355.949C273.797 355.949 274.595 356.254 275.215 356.865C275.835 357.471 276.145 358.416 276.145 359.699V367H274.469V359.699C274.469 358.894 274.249 358.319 273.809 357.973C273.368 357.627 272.85 357.455 272.253 357.455C271.486 357.455 270.892 357.687 270.471 358.151C270.049 358.61 269.838 359.192 269.838 359.898V367H268.134V359.528C268.134 358.908 267.933 358.409 267.53 358.03C267.128 357.646 266.609 357.455 265.975 357.455C265.539 357.455 265.132 357.571 264.753 357.803C264.379 358.035 264.076 358.357 263.844 358.768C263.617 359.176 263.503 359.647 263.503 360.182V367H261.827ZM279.21 371.091V356.091H280.829V357.824H281.028C281.151 357.634 281.322 357.393 281.539 357.099C281.762 356.801 282.079 356.536 282.491 356.304C282.908 356.067 283.471 355.949 284.181 355.949C285.1 355.949 285.91 356.179 286.61 356.638C287.311 357.097 287.858 357.748 288.251 358.591C288.644 359.434 288.841 360.428 288.841 361.574C288.841 362.729 288.644 363.731 288.251 364.578C287.858 365.421 287.314 366.074 286.618 366.538C285.922 366.998 285.119 367.227 284.21 367.227C283.509 367.227 282.948 367.111 282.527 366.879C282.105 366.643 281.781 366.375 281.554 366.077C281.326 365.774 281.151 365.523 281.028 365.324H280.886V371.091H279.21ZM280.858 361.545C280.858 362.369 280.978 363.096 281.22 363.726C281.461 364.351 281.814 364.841 282.278 365.196C282.742 365.546 283.31 365.722 283.983 365.722C284.683 365.722 285.268 365.537 285.737 365.168C286.21 364.794 286.565 364.292 286.802 363.662C287.044 363.027 287.164 362.322 287.164 361.545C287.164 360.778 287.046 360.087 286.809 359.472C286.577 358.851 286.225 358.361 285.751 358.001C285.282 357.637 284.693 357.455 283.983 357.455C283.301 357.455 282.728 357.627 282.264 357.973C281.8 358.314 281.449 358.792 281.213 359.408C280.976 360.018 280.858 360.731 280.858 361.545ZM294.608 367.256C293.916 367.256 293.289 367.125 292.725 366.865C292.162 366.6 291.715 366.219 291.383 365.722C291.052 365.22 290.886 364.614 290.886 363.903C290.886 363.278 291.009 362.772 291.255 362.384C291.502 361.991 291.831 361.683 292.243 361.46C292.654 361.238 293.109 361.072 293.606 360.963C294.108 360.849 294.612 360.759 295.119 360.693C295.782 360.608 296.319 360.544 296.731 360.501C297.148 360.454 297.451 360.376 297.64 360.267C297.834 360.158 297.931 359.969 297.931 359.699V359.642C297.931 358.941 297.74 358.397 297.356 358.009C296.977 357.62 296.402 357.426 295.63 357.426C294.83 357.426 294.203 357.601 293.748 357.952C293.294 358.302 292.974 358.676 292.789 359.074L291.199 358.506C291.483 357.843 291.861 357.327 292.335 356.957C292.813 356.583 293.334 356.323 293.897 356.176C294.466 356.025 295.024 355.949 295.574 355.949C295.924 355.949 296.326 355.991 296.781 356.077C297.24 356.157 297.683 356.325 298.109 356.581C298.54 356.837 298.897 357.223 299.181 357.739C299.466 358.255 299.608 358.946 299.608 359.812V367H297.931V365.523H297.846C297.733 365.759 297.543 366.013 297.278 366.283C297.013 366.553 296.66 366.782 296.22 366.972C295.779 367.161 295.242 367.256 294.608 367.256ZM294.863 365.75C295.526 365.75 296.085 365.62 296.539 365.359C296.999 365.099 297.344 364.763 297.576 364.351C297.813 363.939 297.931 363.506 297.931 363.051V361.517C297.86 361.602 297.704 361.68 297.463 361.751C297.226 361.818 296.951 361.877 296.639 361.929C296.331 361.976 296.03 362.019 295.737 362.057C295.448 362.09 295.214 362.118 295.034 362.142C294.598 362.199 294.191 362.291 293.812 362.419C293.438 362.542 293.135 362.729 292.903 362.98C292.676 363.226 292.562 363.562 292.562 363.989C292.562 364.571 292.778 365.011 293.208 365.31C293.644 365.603 294.196 365.75 294.863 365.75ZM307.099 367.227C306.076 367.227 305.195 366.986 304.457 366.503C303.718 366.02 303.15 365.355 302.752 364.507C302.354 363.66 302.156 362.691 302.156 361.602C302.156 360.494 302.359 359.517 302.766 358.669C303.178 357.817 303.751 357.152 304.485 356.673C305.224 356.19 306.085 355.949 307.07 355.949C307.837 355.949 308.529 356.091 309.144 356.375C309.76 356.659 310.264 357.057 310.657 357.568C311.05 358.08 311.294 358.676 311.388 359.358H309.712C309.585 358.861 309.3 358.42 308.86 358.037C308.424 357.649 307.837 357.455 307.099 357.455C306.445 357.455 305.872 357.625 305.38 357.966C304.892 358.302 304.511 358.778 304.237 359.393C303.967 360.004 303.832 360.722 303.832 361.545C303.832 362.388 303.964 363.122 304.229 363.747C304.499 364.372 304.878 364.857 305.366 365.203C305.858 365.549 306.436 365.722 307.099 365.722C307.534 365.722 307.93 365.646 308.285 365.494C308.64 365.343 308.941 365.125 309.187 364.841C309.433 364.557 309.608 364.216 309.712 363.818H311.388C311.294 364.462 311.059 365.042 310.685 365.558C310.316 366.07 309.826 366.477 309.215 366.78C308.609 367.078 307.904 367.227 307.099 367.227ZM318.583 356.091V357.511H312.93V356.091H318.583ZM314.577 353.477H316.254V363.875C316.254 364.348 316.322 364.704 316.46 364.94C316.602 365.172 316.781 365.329 316.999 365.409C317.222 365.485 317.456 365.523 317.702 365.523C317.887 365.523 318.039 365.513 318.157 365.494C318.275 365.471 318.37 365.452 318.441 365.438L318.782 366.943C318.668 366.986 318.51 367.028 318.306 367.071C318.103 367.118 317.844 367.142 317.532 367.142C317.058 367.142 316.594 367.04 316.14 366.837C315.69 366.633 315.316 366.323 315.018 365.906C314.724 365.49 314.577 364.964 314.577 364.33V353.477Z" class="fill-black dark:fill-white"/>
<path d="M28 222.239H13.4545V213.46H15.017V220.477H19.9318V213.915H21.4943V220.477H26.4375V213.347H28V222.239ZM17.0909 205.655H18.5114V211.536H17.0909V205.655ZM28 209.774H15.5852C14.9602 209.774 14.4394 209.627 14.0227 209.334C13.6061 209.04 13.2936 208.659 13.0852 208.19C12.8769 207.722 12.7727 207.227 12.7727 206.706C12.7727 206.294 12.8059 205.958 12.8722 205.697C12.9384 205.437 13 205.243 13.0568 205.115L14.5057 205.598C14.4773 205.683 14.4418 205.802 14.3991 205.953C14.3565 206.1 14.3352 206.294 14.3352 206.536C14.3352 207.089 14.4749 207.49 14.7543 207.736C15.0336 207.977 15.4432 208.098 15.983 208.098H28V209.774ZM17.0909 198.448H18.5114V204.328H17.0909V198.448ZM28 202.567H15.5852C14.9602 202.567 14.4394 202.42 14.0227 202.127C13.6061 201.833 13.2936 201.452 13.0852 200.983C12.8769 200.515 12.7727 200.02 12.7727 199.499C12.7727 199.087 12.8059 198.751 12.8722 198.49C12.9384 198.23 13 198.036 13.0568 197.908L14.5057 198.391C14.4773 198.476 14.4418 198.595 14.3991 198.746C14.3565 198.893 14.3352 199.087 14.3352 199.328C14.3352 199.882 14.4749 200.283 14.7543 200.529C15.0336 200.77 15.4432 200.891 15.983 200.891H28V202.567ZM28.2273 192.116C28.2273 193.101 27.9929 193.965 27.5241 194.708C27.0554 195.447 26.3996 196.025 25.5568 196.441C24.714 196.853 23.7292 197.059 22.6023 197.059C21.4659 197.059 20.474 196.853 19.6264 196.441C18.7789 196.025 18.1207 195.447 17.652 194.708C17.1832 193.965 16.9489 193.101 16.9489 192.116C16.9489 191.131 17.1832 190.27 17.652 189.531C18.1207 188.788 18.7789 188.21 19.6264 187.798C20.474 187.381 21.4659 187.173 22.6023 187.173C23.7292 187.173 24.714 187.381 25.5568 187.798C26.3996 188.21 27.0554 188.788 27.5241 189.531C27.9929 190.27 28.2273 191.131 28.2273 192.116ZM26.7216 192.116C26.7216 191.368 26.5298 190.752 26.1463 190.27C25.7628 189.787 25.2585 189.429 24.6335 189.197C24.0085 188.965 23.3314 188.849 22.6023 188.849C21.8731 188.849 21.1937 188.965 20.5639 189.197C19.9342 189.429 19.4252 189.787 19.0369 190.27C18.6487 190.752 18.4545 191.368 18.4545 192.116C18.4545 192.864 18.6487 193.48 19.0369 193.963C19.4252 194.446 19.9342 194.803 20.5639 195.035C21.1937 195.267 21.8731 195.383 22.6023 195.383C23.3314 195.383 24.0085 195.267 24.6335 195.035C25.2585 194.803 25.7628 194.446 26.1463 193.963C26.5298 193.48 26.7216 192.864 26.7216 192.116ZM28 184.614H17.0909V182.995H18.7386V182.881C18.1989 182.683 17.7609 182.323 17.4247 181.802C17.0885 181.281 16.9205 180.694 16.9205 180.04C16.9205 179.917 16.9228 179.763 16.9276 179.579C16.9323 179.394 16.9394 179.254 16.9489 179.16H18.6534C18.6392 179.217 18.6179 179.347 18.5895 179.55C18.5563 179.749 18.5398 179.96 18.5398 180.183C18.5398 180.713 18.651 181.186 18.8736 181.603C19.0914 182.015 19.3944 182.342 19.7827 182.583C20.1662 182.82 20.6042 182.938 21.0966 182.938H28V184.614ZM17.0909 171.745H18.5114V177.398H17.0909V171.745ZM14.4773 175.751V174.075H24.875C25.3485 174.075 25.7036 174.006 25.9403 173.869C26.1723 173.727 26.3286 173.547 26.4091 173.329C26.4848 173.106 26.5227 172.872 26.5227 172.626C26.5227 172.441 26.5133 172.29 26.4943 172.171C26.4706 172.053 26.4517 171.958 26.4375 171.887L27.9432 171.546C27.9858 171.66 28.0284 171.818 28.071 172.022C28.1184 172.226 28.142 172.484 28.142 172.796C28.142 173.27 28.0402 173.734 27.8366 174.188C27.633 174.638 27.3229 175.012 26.9063 175.31C26.4896 175.604 25.964 175.751 25.3295 175.751H14.4773Z" class="fill-black dark:fill-white"/>
<rect x="63.5" y="78.5" width="219.613" height="121.51" stroke="black"/>
<rect x="282.887" y="78.5" width="219.613" height="121.51" stroke="black"/>
<rect x="63.5" y="199.99" width="219.613" height="121.51" stroke="black"/>
<rect x="282.887" y="199.99" width="219.613" height="121.51" stroke="black"/>
<path d="M133.44 135V123.364H134.849V128.545H141.054V123.364H142.463V135H141.054V129.795H134.849V135H133.44ZM145.102 135V126.273H146.443V135H145.102ZM145.784 124.818C145.523 124.818 145.297 124.729 145.108 124.551C144.922 124.373 144.83 124.159 144.83 123.909C144.83 123.659 144.922 123.445 145.108 123.267C145.297 123.089 145.523 123 145.784 123C146.045 123 146.269 123.089 146.455 123.267C146.644 123.445 146.739 123.659 146.739 123.909C146.739 124.159 146.644 124.373 146.455 124.551C146.269 124.729 146.045 124.818 145.784 124.818ZM152.422 138.455C151.774 138.455 151.217 138.371 150.751 138.205C150.286 138.042 149.897 137.826 149.587 137.557C149.28 137.292 149.036 137.008 148.854 136.705L149.922 135.955C150.043 136.114 150.196 136.295 150.382 136.5C150.568 136.708 150.821 136.888 151.143 137.04C151.469 137.195 151.895 137.273 152.422 137.273C153.126 137.273 153.708 137.102 154.166 136.761C154.625 136.42 154.854 135.886 154.854 135.159V133.386H154.74C154.642 133.545 154.501 133.742 154.32 133.977C154.142 134.208 153.884 134.415 153.547 134.597C153.214 134.775 152.763 134.864 152.195 134.864C151.49 134.864 150.857 134.697 150.297 134.364C149.74 134.03 149.299 133.545 148.973 132.909C148.651 132.273 148.49 131.5 148.49 130.591C148.49 129.697 148.647 128.919 148.962 128.256C149.276 127.589 149.714 127.074 150.274 126.71C150.835 126.343 151.482 126.159 152.217 126.159C152.786 126.159 153.236 126.254 153.57 126.443C153.907 126.629 154.164 126.841 154.342 127.08C154.524 127.314 154.664 127.508 154.763 127.659H154.899V126.273H156.195V135.25C156.195 136 156.024 136.61 155.683 137.08C155.346 137.553 154.892 137.9 154.32 138.119C153.751 138.343 153.119 138.455 152.422 138.455ZM152.376 133.659C152.914 133.659 153.369 133.536 153.74 133.29C154.111 133.044 154.393 132.689 154.587 132.227C154.78 131.765 154.876 131.212 154.876 130.568C154.876 129.939 154.782 129.384 154.592 128.903C154.403 128.422 154.123 128.045 153.751 127.773C153.38 127.5 152.922 127.364 152.376 127.364C151.808 127.364 151.335 127.508 150.956 127.795C150.581 128.083 150.299 128.47 150.109 128.955C149.924 129.439 149.831 129.977 149.831 130.568C149.831 131.174 149.926 131.71 150.115 132.176C150.308 132.638 150.592 133.002 150.967 133.267C151.346 133.528 151.816 133.659 152.376 133.659ZM159.99 129.75V135H158.649V123.364H159.99V127.636H160.104C160.308 127.186 160.615 126.828 161.024 126.562C161.437 126.294 161.986 126.159 162.672 126.159C163.267 126.159 163.787 126.278 164.234 126.517C164.681 126.752 165.028 127.114 165.274 127.602C165.524 128.087 165.649 128.705 165.649 129.455V135H164.308V129.545C164.308 128.852 164.128 128.316 163.768 127.938C163.412 127.555 162.918 127.364 162.286 127.364C161.846 127.364 161.452 127.456 161.104 127.642C160.759 127.828 160.486 128.098 160.286 128.455C160.089 128.811 159.99 129.242 159.99 129.75ZM172.784 135V123.364H179.807V124.614H174.193V128.545H179.443V129.795H174.193V133.75H179.898V135H172.784ZM186.051 126.273V127.409H181.347V126.273H186.051ZM182.756 135V125.068C182.756 124.568 182.873 124.152 183.108 123.818C183.343 123.485 183.648 123.235 184.023 123.068C184.398 122.902 184.794 122.818 185.21 122.818C185.54 122.818 185.809 122.845 186.017 122.898C186.225 122.951 186.381 123 186.483 123.045L186.097 124.205C186.028 124.182 185.934 124.153 185.812 124.119C185.695 124.085 185.54 124.068 185.347 124.068C184.903 124.068 184.583 124.18 184.386 124.403C184.193 124.627 184.097 124.955 184.097 125.386V135H182.756ZM191.817 126.273V127.409H187.112V126.273H191.817ZM188.521 135V125.068C188.521 124.568 188.639 124.152 188.874 123.818C189.108 123.485 189.413 123.235 189.788 123.068C190.163 122.902 190.559 122.818 190.976 122.818C191.305 122.818 191.574 122.845 191.783 122.898C191.991 122.951 192.146 123 192.249 123.045L191.862 124.205C191.794 124.182 191.699 124.153 191.578 124.119C191.461 124.085 191.305 124.068 191.112 124.068C190.669 124.068 190.349 124.18 190.152 124.403C189.959 124.627 189.862 124.955 189.862 125.386V135H188.521ZM196.882 135.182C196.094 135.182 195.403 134.994 194.808 134.619C194.217 134.244 193.755 133.72 193.422 133.045C193.092 132.371 192.928 131.583 192.928 130.682C192.928 129.773 193.092 128.979 193.422 128.301C193.755 127.623 194.217 127.097 194.808 126.722C195.403 126.347 196.094 126.159 196.882 126.159C197.67 126.159 198.359 126.347 198.95 126.722C199.545 127.097 200.007 127.623 200.337 128.301C200.67 128.979 200.837 129.773 200.837 130.682C200.837 131.583 200.67 132.371 200.337 133.045C200.007 133.72 199.545 134.244 198.95 134.619C198.359 134.994 197.67 135.182 196.882 135.182ZM196.882 133.977C197.481 133.977 197.973 133.824 198.359 133.517C198.746 133.21 199.032 132.807 199.217 132.307C199.403 131.807 199.496 131.265 199.496 130.682C199.496 130.098 199.403 129.555 199.217 129.051C199.032 128.547 198.746 128.14 198.359 127.83C197.973 127.519 197.481 127.364 196.882 127.364C196.284 127.364 195.791 127.519 195.405 127.83C195.018 128.14 194.732 128.547 194.547 129.051C194.361 129.555 194.268 130.098 194.268 130.682C194.268 131.265 194.361 131.807 194.547 132.307C194.732 132.807 195.018 133.21 195.405 133.517C195.791 133.824 196.284 133.977 196.882 133.977ZM202.884 135V126.273H204.179V127.591H204.27C204.429 127.159 204.717 126.809 205.134 126.54C205.55 126.271 206.02 126.136 206.543 126.136C206.641 126.136 206.764 126.138 206.912 126.142C207.06 126.146 207.171 126.152 207.247 126.159V127.523C207.202 127.511 207.098 127.494 206.935 127.472C206.776 127.445 206.607 127.432 206.429 127.432C206.005 127.432 205.626 127.521 205.293 127.699C204.963 127.873 204.702 128.116 204.509 128.426C204.319 128.733 204.224 129.083 204.224 129.477V135H202.884ZM213.179 126.273V127.409H208.656V126.273H213.179ZM209.974 124.182H211.315V132.5C211.315 132.879 211.37 133.163 211.48 133.352C211.594 133.538 211.738 133.663 211.912 133.727C212.09 133.788 212.277 133.818 212.474 133.818C212.622 133.818 212.743 133.811 212.838 133.795C212.933 133.777 213.009 133.761 213.065 133.75L213.338 134.955C213.247 134.989 213.12 135.023 212.957 135.057C212.795 135.095 212.588 135.114 212.338 135.114C211.959 135.114 211.588 135.032 211.224 134.869C210.865 134.706 210.565 134.458 210.327 134.125C210.092 133.792 209.974 133.371 209.974 132.864V124.182ZM130.706 154V142.364H132.115V152.75H137.524V154H130.706ZM143.07 154.182C142.282 154.182 141.59 153.994 140.996 153.619C140.405 153.244 139.943 152.72 139.609 152.045C139.28 151.371 139.115 150.583 139.115 149.682C139.115 148.773 139.28 147.979 139.609 147.301C139.943 146.623 140.405 146.097 140.996 145.722C141.59 145.347 142.282 145.159 143.07 145.159C143.857 145.159 144.547 145.347 145.138 145.722C145.732 146.097 146.195 146.623 146.524 147.301C146.857 147.979 147.024 148.773 147.024 149.682C147.024 150.583 146.857 151.371 146.524 152.045C146.195 152.72 145.732 153.244 145.138 153.619C144.547 153.994 143.857 154.182 143.07 154.182ZM143.07 152.977C143.668 152.977 144.161 152.824 144.547 152.517C144.933 152.21 145.219 151.807 145.405 151.307C145.59 150.807 145.683 150.265 145.683 149.682C145.683 149.098 145.59 148.555 145.405 148.051C145.219 147.547 144.933 147.14 144.547 146.83C144.161 146.519 143.668 146.364 143.07 146.364C142.471 146.364 141.979 146.519 141.592 146.83C141.206 147.14 140.92 147.547 140.734 148.051C140.549 148.555 140.456 149.098 140.456 149.682C140.456 150.265 140.549 150.807 140.734 151.307C140.92 151.807 141.206 152.21 141.592 152.517C141.979 152.824 142.471 152.977 143.07 152.977ZM150.751 154L148.092 145.273H149.501L151.388 151.955H151.479L153.342 145.273H154.774L156.615 151.932H156.706L158.592 145.273H160.001L157.342 154H156.024L154.115 147.295H153.979L152.07 154H150.751ZM167.865 142.364V154H166.456V142.364H167.865ZM170.509 154V145.273H171.804V146.636H171.918C172.099 146.17 172.393 145.809 172.798 145.551C173.204 145.29 173.69 145.159 174.259 145.159C174.834 145.159 175.313 145.29 175.696 145.551C176.082 145.809 176.384 146.17 176.599 146.636H176.69C176.914 146.186 177.249 145.828 177.696 145.562C178.143 145.294 178.679 145.159 179.304 145.159C180.084 145.159 180.723 145.403 181.219 145.892C181.715 146.377 181.963 147.133 181.963 148.159V154H180.622V148.159C180.622 147.515 180.446 147.055 180.094 146.778C179.741 146.502 179.327 146.364 178.849 146.364C178.236 146.364 177.76 146.549 177.423 146.92C177.086 147.288 176.918 147.754 176.918 148.318V154H175.554V148.023C175.554 147.527 175.393 147.127 175.071 146.824C174.749 146.517 174.334 146.364 173.827 146.364C173.478 146.364 173.152 146.456 172.849 146.642C172.55 146.828 172.308 147.085 172.122 147.415C171.94 147.741 171.849 148.117 171.849 148.545V154H170.509ZM184.415 157.273V145.273H185.71V146.659H185.869C185.968 146.508 186.104 146.314 186.278 146.08C186.456 145.841 186.71 145.629 187.04 145.443C187.373 145.254 187.824 145.159 188.392 145.159C189.127 145.159 189.775 145.343 190.335 145.71C190.896 146.078 191.333 146.598 191.648 147.273C191.962 147.947 192.119 148.742 192.119 149.659C192.119 150.583 191.962 151.384 191.648 152.062C191.333 152.737 190.898 153.259 190.341 153.631C189.784 153.998 189.142 154.182 188.415 154.182C187.854 154.182 187.405 154.089 187.068 153.903C186.731 153.714 186.472 153.5 186.29 153.261C186.108 153.019 185.968 152.818 185.869 152.659H185.756V157.273H184.415ZM185.733 149.636C185.733 150.295 185.83 150.877 186.023 151.381C186.216 151.881 186.498 152.273 186.869 152.557C187.241 152.837 187.695 152.977 188.233 152.977C188.794 152.977 189.261 152.83 189.636 152.534C190.015 152.235 190.299 151.833 190.489 151.33C190.682 150.822 190.778 150.258 190.778 149.636C190.778 149.023 190.684 148.47 190.494 147.977C190.309 147.481 190.027 147.089 189.648 146.801C189.273 146.509 188.801 146.364 188.233 146.364C187.688 146.364 187.229 146.502 186.858 146.778C186.487 147.051 186.206 147.434 186.017 147.926C185.828 148.415 185.733 148.985 185.733 149.636ZM196.733 154.205C196.18 154.205 195.678 154.1 195.227 153.892C194.777 153.68 194.419 153.375 194.153 152.977C193.888 152.576 193.756 152.091 193.756 151.523C193.756 151.023 193.854 150.617 194.051 150.307C194.248 149.992 194.511 149.746 194.841 149.568C195.17 149.39 195.534 149.258 195.932 149.17C196.333 149.08 196.737 149.008 197.142 148.955C197.672 148.886 198.102 148.835 198.432 148.801C198.765 148.763 199.008 148.701 199.159 148.614C199.314 148.527 199.392 148.375 199.392 148.159V148.114C199.392 147.553 199.239 147.117 198.932 146.807C198.629 146.496 198.169 146.341 197.551 146.341C196.911 146.341 196.409 146.481 196.045 146.761C195.682 147.042 195.426 147.341 195.278 147.659L194.006 147.205C194.233 146.674 194.536 146.261 194.915 145.966C195.297 145.667 195.714 145.458 196.165 145.341C196.619 145.22 197.066 145.159 197.506 145.159C197.786 145.159 198.108 145.193 198.472 145.261C198.839 145.326 199.193 145.46 199.534 145.665C199.879 145.869 200.165 146.178 200.392 146.591C200.619 147.004 200.733 147.557 200.733 148.25V154H199.392V152.818H199.324C199.233 153.008 199.081 153.21 198.869 153.426C198.657 153.642 198.375 153.826 198.023 153.977C197.67 154.129 197.241 154.205 196.733 154.205ZM196.938 153C197.468 153 197.915 152.896 198.278 152.688C198.646 152.479 198.922 152.21 199.108 151.881C199.297 151.551 199.392 151.205 199.392 150.841V149.614C199.335 149.682 199.21 149.744 199.017 149.801C198.828 149.854 198.608 149.902 198.358 149.943C198.112 149.981 197.871 150.015 197.636 150.045C197.405 150.072 197.218 150.095 197.074 150.114C196.725 150.159 196.4 150.233 196.097 150.335C195.797 150.434 195.555 150.583 195.369 150.784C195.188 150.981 195.097 151.25 195.097 151.591C195.097 152.057 195.269 152.409 195.614 152.648C195.962 152.883 196.403 153 196.938 153ZM206.726 154.182C205.908 154.182 205.203 153.989 204.612 153.602C204.021 153.216 203.567 152.684 203.249 152.006C202.93 151.328 202.771 150.553 202.771 149.682C202.771 148.795 202.934 148.013 203.26 147.335C203.589 146.653 204.048 146.121 204.635 145.739C205.226 145.352 205.915 145.159 206.703 145.159C207.317 145.159 207.87 145.273 208.362 145.5C208.855 145.727 209.258 146.045 209.572 146.455C209.887 146.864 210.082 147.341 210.158 147.886H208.817C208.714 147.489 208.487 147.136 208.135 146.83C207.786 146.519 207.317 146.364 206.726 146.364C206.203 146.364 205.745 146.5 205.351 146.773C204.961 147.042 204.656 147.422 204.436 147.915C204.22 148.403 204.112 148.977 204.112 149.636C204.112 150.311 204.218 150.898 204.43 151.398C204.646 151.898 204.949 152.286 205.339 152.562C205.733 152.839 206.196 152.977 206.726 152.977C207.074 152.977 207.391 152.917 207.675 152.795C207.959 152.674 208.199 152.5 208.396 152.273C208.593 152.045 208.733 151.773 208.817 151.455H210.158C210.082 151.97 209.894 152.434 209.595 152.847C209.3 153.256 208.908 153.581 208.419 153.824C207.934 154.062 207.37 154.182 206.726 154.182ZM215.913 145.273V146.409H211.391V145.273H215.913ZM212.709 143.182H214.05V151.5C214.05 151.879 214.105 152.163 214.214 152.352C214.328 152.538 214.472 152.663 214.646 152.727C214.824 152.788 215.012 152.818 215.209 152.818C215.357 152.818 215.478 152.811 215.572 152.795C215.667 152.777 215.743 152.761 215.8 152.75L216.072 153.955C215.982 153.989 215.855 154.023 215.692 154.057C215.529 154.095 215.322 154.114 215.072 154.114C214.694 154.114 214.322 154.032 213.959 153.869C213.599 153.706 213.3 153.458 213.061 153.125C212.826 152.792 212.709 152.371 212.709 151.864V143.182Z" class="fill-black dark:fill-white"/>
<path d="M353.94 135V123.364H355.349V128.545H361.554V123.364H362.963V135H361.554V129.795H355.349V135H353.94ZM365.602 135V126.273H366.943V135H365.602ZM366.284 124.818C366.023 124.818 365.797 124.729 365.608 124.551C365.422 124.373 365.33 124.159 365.33 123.909C365.33 123.659 365.422 123.445 365.608 123.267C365.797 123.089 366.023 123 366.284 123C366.545 123 366.769 123.089 366.955 123.267C367.144 123.445 367.239 123.659 367.239 123.909C367.239 124.159 367.144 124.373 366.955 124.551C366.769 124.729 366.545 124.818 366.284 124.818ZM372.922 138.455C372.274 138.455 371.717 138.371 371.251 138.205C370.786 138.042 370.397 137.826 370.087 137.557C369.78 137.292 369.536 137.008 369.354 136.705L370.422 135.955C370.543 136.114 370.696 136.295 370.882 136.5C371.068 136.708 371.321 136.888 371.643 137.04C371.969 137.195 372.395 137.273 372.922 137.273C373.626 137.273 374.208 137.102 374.666 136.761C375.125 136.42 375.354 135.886 375.354 135.159V133.386H375.24C375.142 133.545 375.001 133.742 374.82 133.977C374.642 134.208 374.384 134.415 374.047 134.597C373.714 134.775 373.263 134.864 372.695 134.864C371.99 134.864 371.357 134.697 370.797 134.364C370.24 134.03 369.799 133.545 369.473 132.909C369.151 132.273 368.99 131.5 368.99 130.591C368.99 129.697 369.147 128.919 369.462 128.256C369.776 127.589 370.214 127.074 370.774 126.71C371.335 126.343 371.982 126.159 372.717 126.159C373.286 126.159 373.736 126.254 374.07 126.443C374.407 126.629 374.664 126.841 374.842 127.08C375.024 127.314 375.164 127.508 375.263 127.659H375.399V126.273H376.695V135.25C376.695 136 376.524 136.61 376.183 137.08C375.846 137.553 375.392 137.9 374.82 138.119C374.251 138.343 373.619 138.455 372.922 138.455ZM372.876 133.659C373.414 133.659 373.869 133.536 374.24 133.29C374.611 133.044 374.893 132.689 375.087 132.227C375.28 131.765 375.376 131.212 375.376 130.568C375.376 129.939 375.282 129.384 375.092 128.903C374.903 128.422 374.623 128.045 374.251 127.773C373.88 127.5 373.422 127.364 372.876 127.364C372.308 127.364 371.835 127.508 371.456 127.795C371.081 128.083 370.799 128.47 370.609 128.955C370.424 129.439 370.331 129.977 370.331 130.568C370.331 131.174 370.426 131.71 370.615 132.176C370.808 132.638 371.092 133.002 371.467 133.267C371.846 133.528 372.316 133.659 372.876 133.659ZM380.49 129.75V135H379.149V123.364H380.49V127.636H380.604C380.808 127.186 381.115 126.828 381.524 126.562C381.937 126.294 382.486 126.159 383.172 126.159C383.767 126.159 384.287 126.278 384.734 126.517C385.181 126.752 385.528 127.114 385.774 127.602C386.024 128.087 386.149 128.705 386.149 129.455V135H384.808V129.545C384.808 128.852 384.628 128.316 384.268 127.938C383.912 127.555 383.418 127.364 382.786 127.364C382.346 127.364 381.952 127.456 381.604 127.642C381.259 127.828 380.986 128.098 380.786 128.455C380.589 128.811 380.49 129.242 380.49 129.75ZM393.284 135V123.364H400.307V124.614H394.693V128.545H399.943V129.795H394.693V133.75H400.398V135H393.284ZM406.551 126.273V127.409H401.847V126.273H406.551ZM403.256 135V125.068C403.256 124.568 403.373 124.152 403.608 123.818C403.843 123.485 404.148 123.235 404.523 123.068C404.898 122.902 405.294 122.818 405.71 122.818C406.04 122.818 406.309 122.845 406.517 122.898C406.725 122.951 406.881 123 406.983 123.045L406.597 124.205C406.528 124.182 406.434 124.153 406.312 124.119C406.195 124.085 406.04 124.068 405.847 124.068C405.403 124.068 405.083 124.18 404.886 124.403C404.693 124.627 404.597 124.955 404.597 125.386V135H403.256ZM412.317 126.273V127.409H407.612V126.273H412.317ZM409.021 135V125.068C409.021 124.568 409.139 124.152 409.374 123.818C409.608 123.485 409.913 123.235 410.288 123.068C410.663 122.902 411.059 122.818 411.476 122.818C411.805 122.818 412.074 122.845 412.283 122.898C412.491 122.951 412.646 123 412.749 123.045L412.362 124.205C412.294 124.182 412.199 124.153 412.078 124.119C411.961 124.085 411.805 124.068 411.612 124.068C411.169 124.068 410.849 124.18 410.652 124.403C410.459 124.627 410.362 124.955 410.362 125.386V135H409.021ZM417.382 135.182C416.594 135.182 415.903 134.994 415.308 134.619C414.717 134.244 414.255 133.72 413.922 133.045C413.592 132.371 413.428 131.583 413.428 130.682C413.428 129.773 413.592 128.979 413.922 128.301C414.255 127.623 414.717 127.097 415.308 126.722C415.903 126.347 416.594 126.159 417.382 126.159C418.17 126.159 418.859 126.347 419.45 126.722C420.045 127.097 420.507 127.623 420.837 128.301C421.17 128.979 421.337 129.773 421.337 130.682C421.337 131.583 421.17 132.371 420.837 133.045C420.507 133.72 420.045 134.244 419.45 134.619C418.859 134.994 418.17 135.182 417.382 135.182ZM417.382 133.977C417.981 133.977 418.473 133.824 418.859 133.517C419.246 133.21 419.532 132.807 419.717 132.307C419.903 131.807 419.996 131.265 419.996 130.682C419.996 130.098 419.903 129.555 419.717 129.051C419.532 128.547 419.246 128.14 418.859 127.83C418.473 127.519 417.981 127.364 417.382 127.364C416.784 127.364 416.291 127.519 415.905 127.83C415.518 128.14 415.232 128.547 415.047 129.051C414.861 129.555 414.768 130.098 414.768 130.682C414.768 131.265 414.861 131.807 415.047 132.307C415.232 132.807 415.518 133.21 415.905 133.517C416.291 133.824 416.784 133.977 417.382 133.977ZM423.384 135V126.273H424.679V127.591H424.77C424.929 127.159 425.217 126.809 425.634 126.54C426.05 126.271 426.52 126.136 427.043 126.136C427.141 126.136 427.264 126.138 427.412 126.142C427.56 126.146 427.671 126.152 427.747 126.159V127.523C427.702 127.511 427.598 127.494 427.435 127.472C427.276 127.445 427.107 127.432 426.929 127.432C426.505 127.432 426.126 127.521 425.793 127.699C425.463 127.873 425.202 128.116 425.009 128.426C424.819 128.733 424.724 129.083 424.724 129.477V135H423.384ZM433.679 126.273V127.409H429.156V126.273H433.679ZM430.474 124.182H431.815V132.5C431.815 132.879 431.87 133.163 431.98 133.352C432.094 133.538 432.238 133.663 432.412 133.727C432.59 133.788 432.777 133.818 432.974 133.818C433.122 133.818 433.243 133.811 433.338 133.795C433.433 133.777 433.509 133.761 433.565 133.75L433.838 134.955C433.747 134.989 433.62 135.023 433.457 135.057C433.295 135.095 433.088 135.114 432.838 135.114C432.459 135.114 432.088 135.032 431.724 134.869C431.365 134.706 431.065 134.458 430.827 134.125C430.592 133.792 430.474 133.371 430.474 132.864V124.182ZM349.409 154V142.364H350.818V147.545H357.023V142.364H358.432V154H357.023V148.795H350.818V154H349.409ZM361.071 154V145.273H362.412V154H361.071ZM361.753 143.818C361.491 143.818 361.266 143.729 361.077 143.551C360.891 143.373 360.798 143.159 360.798 142.909C360.798 142.659 360.891 142.445 361.077 142.267C361.266 142.089 361.491 142 361.753 142C362.014 142 362.238 142.089 362.423 142.267C362.613 142.445 362.707 142.659 362.707 142.909C362.707 143.159 362.613 143.373 362.423 143.551C362.238 143.729 362.014 143.818 361.753 143.818ZM368.391 157.455C367.743 157.455 367.186 157.371 366.72 157.205C366.254 157.042 365.866 156.826 365.555 156.557C365.249 156.292 365.004 156.008 364.822 155.705L365.891 154.955C366.012 155.114 366.165 155.295 366.351 155.5C366.536 155.708 366.79 155.888 367.112 156.04C367.438 156.195 367.864 156.273 368.391 156.273C369.095 156.273 369.677 156.102 370.135 155.761C370.593 155.42 370.822 154.886 370.822 154.159V152.386H370.709C370.61 152.545 370.47 152.742 370.288 152.977C370.11 153.208 369.853 153.415 369.516 153.597C369.182 153.775 368.732 153.864 368.163 153.864C367.459 153.864 366.826 153.697 366.266 153.364C365.709 153.03 365.268 152.545 364.942 151.909C364.62 151.273 364.459 150.5 364.459 149.591C364.459 148.697 364.616 147.919 364.93 147.256C365.245 146.589 365.682 146.074 366.243 145.71C366.804 145.343 367.451 145.159 368.186 145.159C368.754 145.159 369.205 145.254 369.538 145.443C369.875 145.629 370.133 145.841 370.311 146.08C370.493 146.314 370.633 146.508 370.732 146.659H370.868V145.273H372.163V154.25C372.163 155 371.993 155.61 371.652 156.08C371.315 156.553 370.86 156.9 370.288 157.119C369.72 157.343 369.088 157.455 368.391 157.455ZM368.345 152.659C368.883 152.659 369.338 152.536 369.709 152.29C370.08 152.044 370.362 151.689 370.555 151.227C370.749 150.765 370.845 150.212 370.845 149.568C370.845 148.939 370.75 148.384 370.561 147.903C370.372 147.422 370.091 147.045 369.72 146.773C369.349 146.5 368.891 146.364 368.345 146.364C367.777 146.364 367.304 146.508 366.925 146.795C366.55 147.083 366.268 147.47 366.078 147.955C365.893 148.439 365.8 148.977 365.8 149.568C365.8 150.174 365.894 150.71 366.084 151.176C366.277 151.638 366.561 152.002 366.936 152.267C367.315 152.528 367.785 152.659 368.345 152.659ZM375.959 148.75V154H374.618V142.364H375.959V146.636H376.072C376.277 146.186 376.584 145.828 376.993 145.562C377.406 145.294 377.955 145.159 378.641 145.159C379.235 145.159 379.756 145.278 380.203 145.517C380.65 145.752 380.997 146.114 381.243 146.602C381.493 147.087 381.618 147.705 381.618 148.455V154H380.277V148.545C380.277 147.852 380.097 147.316 379.737 146.938C379.381 146.555 378.887 146.364 378.254 146.364C377.815 146.364 377.421 146.456 377.072 146.642C376.728 146.828 376.455 147.098 376.254 147.455C376.057 147.811 375.959 148.242 375.959 148.75ZM390.162 142.364V154H388.753V142.364H390.162ZM392.805 154V145.273H394.101V146.636H394.214C394.396 146.17 394.69 145.809 395.095 145.551C395.5 145.29 395.987 145.159 396.555 145.159C397.131 145.159 397.61 145.29 397.993 145.551C398.379 145.809 398.68 146.17 398.896 146.636H398.987C399.211 146.186 399.546 145.828 399.993 145.562C400.44 145.294 400.976 145.159 401.601 145.159C402.381 145.159 403.019 145.403 403.516 145.892C404.012 146.377 404.26 147.133 404.26 148.159V154H402.919V148.159C402.919 147.515 402.743 147.055 402.391 146.778C402.038 146.502 401.624 146.364 401.146 146.364C400.533 146.364 400.057 146.549 399.72 146.92C399.383 147.288 399.214 147.754 399.214 148.318V154H397.851V148.023C397.851 147.527 397.69 147.127 397.368 146.824C397.046 146.517 396.631 146.364 396.124 146.364C395.775 146.364 395.449 146.456 395.146 146.642C394.847 146.828 394.605 147.085 394.419 147.415C394.237 147.741 394.146 148.117 394.146 148.545V154H392.805ZM406.712 157.273V145.273H408.007V146.659H408.166C408.265 146.508 408.401 146.314 408.575 146.08C408.753 145.841 409.007 145.629 409.337 145.443C409.67 145.254 410.121 145.159 410.689 145.159C411.424 145.159 412.071 145.343 412.632 145.71C413.193 146.078 413.63 146.598 413.945 147.273C414.259 147.947 414.416 148.742 414.416 149.659C414.416 150.583 414.259 151.384 413.945 152.062C413.63 152.737 413.195 153.259 412.638 153.631C412.081 153.998 411.439 154.182 410.712 154.182C410.151 154.182 409.702 154.089 409.365 153.903C409.028 153.714 408.768 153.5 408.587 153.261C408.405 153.019 408.265 152.818 408.166 152.659H408.053V157.273H406.712ZM408.03 149.636C408.03 150.295 408.126 150.877 408.32 151.381C408.513 151.881 408.795 152.273 409.166 152.557C409.537 152.837 409.992 152.977 410.53 152.977C411.09 152.977 411.558 152.83 411.933 152.534C412.312 152.235 412.596 151.833 412.786 151.33C412.979 150.822 413.075 150.258 413.075 149.636C413.075 149.023 412.981 148.47 412.791 147.977C412.606 147.481 412.323 147.089 411.945 146.801C411.57 146.509 411.098 146.364 410.53 146.364C409.984 146.364 409.526 146.502 409.155 146.778C408.784 147.051 408.503 147.434 408.314 147.926C408.125 148.415 408.03 148.985 408.03 149.636ZM419.03 154.205C418.477 154.205 417.975 154.1 417.524 153.892C417.073 153.68 416.715 153.375 416.45 152.977C416.185 152.576 416.053 152.091 416.053 151.523C416.053 151.023 416.151 150.617 416.348 150.307C416.545 149.992 416.808 149.746 417.138 149.568C417.467 149.39 417.831 149.258 418.229 149.17C418.63 149.08 419.034 149.008 419.439 148.955C419.969 148.886 420.399 148.835 420.729 148.801C421.062 148.763 421.304 148.701 421.456 148.614C421.611 148.527 421.689 148.375 421.689 148.159V148.114C421.689 147.553 421.536 147.117 421.229 146.807C420.926 146.496 420.465 146.341 419.848 146.341C419.208 146.341 418.706 146.481 418.342 146.761C417.979 147.042 417.723 147.341 417.575 147.659L416.303 147.205C416.53 146.674 416.833 146.261 417.212 145.966C417.594 145.667 418.011 145.458 418.462 145.341C418.916 145.22 419.363 145.159 419.803 145.159C420.083 145.159 420.405 145.193 420.768 145.261C421.136 145.326 421.49 145.46 421.831 145.665C422.176 145.869 422.462 146.178 422.689 146.591C422.916 147.004 423.03 147.557 423.03 148.25V154H421.689V152.818H421.621C421.53 153.008 421.378 153.21 421.166 153.426C420.954 153.642 420.672 153.826 420.32 153.977C419.967 154.129 419.537 154.205 419.03 154.205ZM419.234 153C419.765 153 420.212 152.896 420.575 152.688C420.943 152.479 421.219 152.21 421.405 151.881C421.594 151.551 421.689 151.205 421.689 150.841V149.614C421.632 149.682 421.507 149.744 421.314 149.801C421.125 149.854 420.905 149.902 420.655 149.943C420.409 149.981 420.168 150.015 419.933 150.045C419.702 150.072 419.515 150.095 419.371 150.114C419.022 150.159 418.696 150.233 418.393 150.335C418.094 150.434 417.852 150.583 417.666 150.784C417.484 150.981 417.393 151.25 417.393 151.591C417.393 152.057 417.566 152.409 417.911 152.648C418.259 152.883 418.7 153 419.234 153ZM429.023 154.182C428.205 154.182 427.5 153.989 426.909 153.602C426.318 153.216 425.864 152.684 425.545 152.006C425.227 151.328 425.068 150.553 425.068 149.682C425.068 148.795 425.231 148.013 425.557 147.335C425.886 146.653 426.345 146.121 426.932 145.739C427.523 145.352 428.212 145.159 429 145.159C429.614 145.159 430.167 145.273 430.659 145.5C431.152 145.727 431.555 146.045 431.869 146.455C432.184 146.864 432.379 147.341 432.455 147.886H431.114C431.011 147.489 430.784 147.136 430.432 146.83C430.083 146.519 429.614 146.364 429.023 146.364C428.5 146.364 428.042 146.5 427.648 146.773C427.258 147.042 426.953 147.422 426.733 147.915C426.517 148.403 426.409 148.977 426.409 149.636C426.409 150.311 426.515 150.898 426.727 151.398C426.943 151.898 427.246 152.286 427.636 152.562C428.03 152.839 428.492 152.977 429.023 152.977C429.371 152.977 429.688 152.917 429.972 152.795C430.256 152.674 430.496 152.5 430.693 152.273C430.89 152.045 431.03 151.773 431.114 151.455H432.455C432.379 151.97 432.191 152.434 431.892 152.847C431.597 153.256 431.205 153.581 430.716 153.824C430.231 154.062 429.667 154.182 429.023 154.182ZM438.21 145.273V146.409H433.688V145.273H438.21ZM435.006 143.182H436.347V151.5C436.347 151.879 436.402 152.163 436.511 152.352C436.625 152.538 436.769 152.663 436.943 152.727C437.121 152.788 437.309 152.818 437.506 152.818C437.653 152.818 437.775 152.811 437.869 152.795C437.964 152.777 438.04 152.761 438.097 152.75L438.369 153.955C438.278 153.989 438.152 154.023 437.989 154.057C437.826 154.095 437.619 154.114 437.369 154.114C436.991 154.114 436.619 154.032 436.256 153.869C435.896 153.706 435.597 153.458 435.358 153.125C435.123 152.792 435.006 152.371 435.006 151.864V143.182Z" class="fill-black dark:fill-white"/>
<path d="M355.737 257V245.364H357.146V255.75H362.555V257H355.737ZM368.101 257.182C367.313 257.182 366.622 256.994 366.027 256.619C365.436 256.244 364.974 255.72 364.641 255.045C364.311 254.371 364.146 253.583 364.146 252.682C364.146 251.773 364.311 250.979 364.641 250.301C364.974 249.623 365.436 249.097 366.027 248.722C366.622 248.347 367.313 248.159 368.101 248.159C368.889 248.159 369.578 248.347 370.169 248.722C370.764 249.097 371.226 249.623 371.555 250.301C371.889 250.979 372.055 251.773 372.055 252.682C372.055 253.583 371.889 254.371 371.555 255.045C371.226 255.72 370.764 256.244 370.169 256.619C369.578 256.994 368.889 257.182 368.101 257.182ZM368.101 255.977C368.699 255.977 369.192 255.824 369.578 255.517C369.964 255.21 370.25 254.807 370.436 254.307C370.622 253.807 370.714 253.265 370.714 252.682C370.714 252.098 370.622 251.555 370.436 251.051C370.25 250.547 369.964 250.14 369.578 249.83C369.192 249.519 368.699 249.364 368.101 249.364C367.502 249.364 367.01 249.519 366.624 249.83C366.237 250.14 365.951 250.547 365.766 251.051C365.58 251.555 365.487 252.098 365.487 252.682C365.487 253.265 365.58 253.807 365.766 254.307C365.951 254.807 366.237 255.21 366.624 255.517C367.01 255.824 367.502 255.977 368.101 255.977ZM375.783 257L373.124 248.273H374.533L376.419 254.955H376.51L378.374 248.273H379.805L381.646 254.932H381.737L383.624 248.273H385.033L382.374 257H381.055L379.146 250.295H379.01L377.101 257H375.783ZM391.487 257V245.364H398.51V246.614H392.896V250.545H398.146V251.795H392.896V255.75H398.601V257H391.487ZM404.754 248.273V249.409H400.05V248.273H404.754ZM401.459 257V247.068C401.459 246.568 401.576 246.152 401.811 245.818C402.046 245.485 402.351 245.235 402.726 245.068C403.101 244.902 403.497 244.818 403.913 244.818C404.243 244.818 404.512 244.845 404.72 244.898C404.929 244.951 405.084 245 405.186 245.045L404.8 246.205C404.732 246.182 404.637 246.153 404.516 246.119C404.398 246.085 404.243 246.068 404.05 246.068C403.607 246.068 403.286 246.18 403.089 246.403C402.896 246.627 402.8 246.955 402.8 247.386V257H401.459ZM410.52 248.273V249.409H405.815V248.273H410.52ZM407.224 257V247.068C407.224 246.568 407.342 246.152 407.577 245.818C407.812 245.485 408.116 245.235 408.491 245.068C408.866 244.902 409.262 244.818 409.679 244.818C410.009 244.818 410.277 244.845 410.486 244.898C410.694 244.951 410.849 245 410.952 245.045L410.565 246.205C410.497 246.182 410.402 246.153 410.281 246.119C410.164 246.085 410.009 246.068 409.815 246.068C409.372 246.068 409.052 246.18 408.855 246.403C408.662 246.627 408.565 246.955 408.565 247.386V257H407.224ZM415.585 257.182C414.797 257.182 414.106 256.994 413.511 256.619C412.92 256.244 412.458 255.72 412.125 255.045C411.795 254.371 411.631 253.583 411.631 252.682C411.631 251.773 411.795 250.979 412.125 250.301C412.458 249.623 412.92 249.097 413.511 248.722C414.106 248.347 414.797 248.159 415.585 248.159C416.373 248.159 417.063 248.347 417.653 248.722C418.248 249.097 418.71 249.623 419.04 250.301C419.373 250.979 419.54 251.773 419.54 252.682C419.54 253.583 419.373 254.371 419.04 255.045C418.71 255.72 418.248 256.244 417.653 256.619C417.063 256.994 416.373 257.182 415.585 257.182ZM415.585 255.977C416.184 255.977 416.676 255.824 417.062 255.517C417.449 255.21 417.735 254.807 417.92 254.307C418.106 253.807 418.199 253.265 418.199 252.682C418.199 252.098 418.106 251.555 417.92 251.051C417.735 250.547 417.449 250.14 417.062 249.83C416.676 249.519 416.184 249.364 415.585 249.364C414.987 249.364 414.494 249.519 414.108 249.83C413.722 250.14 413.436 250.547 413.25 251.051C413.064 251.555 412.972 252.098 412.972 252.682C412.972 253.265 413.064 253.807 413.25 254.307C413.436 254.807 413.722 255.21 414.108 255.517C414.494 255.824 414.987 255.977 415.585 255.977ZM421.587 257V248.273H422.882V249.591H422.973C423.132 249.159 423.42 248.809 423.837 248.54C424.253 248.271 424.723 248.136 425.246 248.136C425.344 248.136 425.467 248.138 425.615 248.142C425.763 248.146 425.875 248.152 425.95 248.159V249.523C425.905 249.511 425.801 249.494 425.638 249.472C425.479 249.445 425.31 249.432 425.132 249.432C424.708 249.432 424.329 249.521 423.996 249.699C423.666 249.873 423.405 250.116 423.212 250.426C423.022 250.733 422.928 251.083 422.928 251.477V257H421.587ZM431.882 248.273V249.409H427.359V248.273H431.882ZM428.678 246.182H430.018V254.5C430.018 254.879 430.073 255.163 430.183 255.352C430.297 255.538 430.441 255.663 430.615 255.727C430.793 255.788 430.981 255.818 431.178 255.818C431.325 255.818 431.446 255.811 431.541 255.795C431.636 255.777 431.712 255.761 431.768 255.75L432.041 256.955C431.95 256.989 431.823 257.023 431.661 257.057C431.498 257.095 431.291 257.114 431.041 257.114C430.662 257.114 430.291 257.032 429.928 256.869C429.568 256.706 429.268 256.458 429.03 256.125C428.795 255.792 428.678 255.371 428.678 254.864V246.182ZM349.409 276V264.364H350.818V269.545H357.023V264.364H358.432V276H357.023V270.795H350.818V276H349.409ZM361.071 276V267.273H362.412V276H361.071ZM361.753 265.818C361.491 265.818 361.266 265.729 361.077 265.551C360.891 265.373 360.798 265.159 360.798 264.909C360.798 264.659 360.891 264.445 361.077 264.267C361.266 264.089 361.491 264 361.753 264C362.014 264 362.238 264.089 362.423 264.267C362.613 264.445 362.707 264.659 362.707 264.909C362.707 265.159 362.613 265.373 362.423 265.551C362.238 265.729 362.014 265.818 361.753 265.818ZM368.391 279.455C367.743 279.455 367.186 279.371 366.72 279.205C366.254 279.042 365.866 278.826 365.555 278.557C365.249 278.292 365.004 278.008 364.822 277.705L365.891 276.955C366.012 277.114 366.165 277.295 366.351 277.5C366.536 277.708 366.79 277.888 367.112 278.04C367.438 278.195 367.864 278.273 368.391 278.273C369.095 278.273 369.677 278.102 370.135 277.761C370.593 277.42 370.822 276.886 370.822 276.159V274.386H370.709C370.61 274.545 370.47 274.742 370.288 274.977C370.11 275.208 369.853 275.415 369.516 275.597C369.182 275.775 368.732 275.864 368.163 275.864C367.459 275.864 366.826 275.697 366.266 275.364C365.709 275.03 365.268 274.545 364.942 273.909C364.62 273.273 364.459 272.5 364.459 271.591C364.459 270.697 364.616 269.919 364.93 269.256C365.245 268.589 365.682 268.074 366.243 267.71C366.804 267.343 367.451 267.159 368.186 267.159C368.754 267.159 369.205 267.254 369.538 267.443C369.875 267.629 370.133 267.841 370.311 268.08C370.493 268.314 370.633 268.508 370.732 268.659H370.868V267.273H372.163V276.25C372.163 277 371.993 277.61 371.652 278.08C371.315 278.553 370.86 278.9 370.288 279.119C369.72 279.343 369.088 279.455 368.391 279.455ZM368.345 274.659C368.883 274.659 369.338 274.536 369.709 274.29C370.08 274.044 370.362 273.689 370.555 273.227C370.749 272.765 370.845 272.212 370.845 271.568C370.845 270.939 370.75 270.384 370.561 269.903C370.372 269.422 370.091 269.045 369.72 268.773C369.349 268.5 368.891 268.364 368.345 268.364C367.777 268.364 367.304 268.508 366.925 268.795C366.55 269.083 366.268 269.47 366.078 269.955C365.893 270.439 365.8 270.977 365.8 271.568C365.8 272.174 365.894 272.71 366.084 273.176C366.277 273.638 366.561 274.002 366.936 274.267C367.315 274.528 367.785 274.659 368.345 274.659ZM375.959 270.75V276H374.618V264.364H375.959V268.636H376.072C376.277 268.186 376.584 267.828 376.993 267.562C377.406 267.294 377.955 267.159 378.641 267.159C379.235 267.159 379.756 267.278 380.203 267.517C380.65 267.752 380.997 268.114 381.243 268.602C381.493 269.087 381.618 269.705 381.618 270.455V276H380.277V270.545C380.277 269.852 380.097 269.316 379.737 268.938C379.381 268.555 378.887 268.364 378.254 268.364C377.815 268.364 377.421 268.456 377.072 268.642C376.728 268.828 376.455 269.098 376.254 269.455C376.057 269.811 375.959 270.242 375.959 270.75ZM390.162 264.364V276H388.753V264.364H390.162ZM392.805 276V267.273H394.101V268.636H394.214C394.396 268.17 394.69 267.809 395.095 267.551C395.5 267.29 395.987 267.159 396.555 267.159C397.131 267.159 397.61 267.29 397.993 267.551C398.379 267.809 398.68 268.17 398.896 268.636H398.987C399.211 268.186 399.546 267.828 399.993 267.562C400.44 267.294 400.976 267.159 401.601 267.159C402.381 267.159 403.019 267.403 403.516 267.892C404.012 268.377 404.26 269.133 404.26 270.159V276H402.919V270.159C402.919 269.515 402.743 269.055 402.391 268.778C402.038 268.502 401.624 268.364 401.146 268.364C400.533 268.364 400.057 268.549 399.72 268.92C399.383 269.288 399.214 269.754 399.214 270.318V276H397.851V270.023C397.851 269.527 397.69 269.127 397.368 268.824C397.046 268.517 396.631 268.364 396.124 268.364C395.775 268.364 395.449 268.456 395.146 268.642C394.847 268.828 394.605 269.085 394.419 269.415C394.237 269.741 394.146 270.117 394.146 270.545V276H392.805ZM406.712 279.273V267.273H408.007V268.659H408.166C408.265 268.508 408.401 268.314 408.575 268.08C408.753 267.841 409.007 267.629 409.337 267.443C409.67 267.254 410.121 267.159 410.689 267.159C411.424 267.159 412.071 267.343 412.632 267.71C413.193 268.078 413.63 268.598 413.945 269.273C414.259 269.947 414.416 270.742 414.416 271.659C414.416 272.583 414.259 273.384 413.945 274.062C413.63 274.737 413.195 275.259 412.638 275.631C412.081 275.998 411.439 276.182 410.712 276.182C410.151 276.182 409.702 276.089 409.365 275.903C409.028 275.714 408.768 275.5 408.587 275.261C408.405 275.019 408.265 274.818 408.166 274.659H408.053V279.273H406.712ZM408.03 271.636C408.03 272.295 408.126 272.877 408.32 273.381C408.513 273.881 408.795 274.273 409.166 274.557C409.537 274.837 409.992 274.977 410.53 274.977C411.09 274.977 411.558 274.83 411.933 274.534C412.312 274.235 412.596 273.833 412.786 273.33C412.979 272.822 413.075 272.258 413.075 271.636C413.075 271.023 412.981 270.47 412.791 269.977C412.606 269.481 412.323 269.089 411.945 268.801C411.57 268.509 411.098 268.364 410.53 268.364C409.984 268.364 409.526 268.502 409.155 268.778C408.784 269.051 408.503 269.434 408.314 269.926C408.125 270.415 408.03 270.985 408.03 271.636ZM419.03 276.205C418.477 276.205 417.975 276.1 417.524 275.892C417.073 275.68 416.715 275.375 416.45 274.977C416.185 274.576 416.053 274.091 416.053 273.523C416.053 273.023 416.151 272.617 416.348 272.307C416.545 271.992 416.808 271.746 417.138 271.568C417.467 271.39 417.831 271.258 418.229 271.17C418.63 271.08 419.034 271.008 419.439 270.955C419.969 270.886 420.399 270.835 420.729 270.801C421.062 270.763 421.304 270.701 421.456 270.614C421.611 270.527 421.689 270.375 421.689 270.159V270.114C421.689 269.553 421.536 269.117 421.229 268.807C420.926 268.496 420.465 268.341 419.848 268.341C419.208 268.341 418.706 268.481 418.342 268.761C417.979 269.042 417.723 269.341 417.575 269.659L416.303 269.205C416.53 268.674 416.833 268.261 417.212 267.966C417.594 267.667 418.011 267.458 418.462 267.341C418.916 267.22 419.363 267.159 419.803 267.159C420.083 267.159 420.405 267.193 420.768 267.261C421.136 267.326 421.49 267.46 421.831 267.665C422.176 267.869 422.462 268.178 422.689 268.591C422.916 269.004 423.03 269.557 423.03 270.25V276H421.689V274.818H421.621C421.53 275.008 421.378 275.21 421.166 275.426C420.954 275.642 420.672 275.826 420.32 275.977C419.967 276.129 419.537 276.205 419.03 276.205ZM419.234 275C419.765 275 420.212 274.896 420.575 274.688C420.943 274.479 421.219 274.21 421.405 273.881C421.594 273.551 421.689 273.205 421.689 272.841V271.614C421.632 271.682 421.507 271.744 421.314 271.801C421.125 271.854 420.905 271.902 420.655 271.943C420.409 271.981 420.168 272.015 419.933 272.045C419.702 272.072 419.515 272.095 419.371 272.114C419.022 272.159 418.696 272.233 418.393 272.335C418.094 272.434 417.852 272.583 417.666 272.784C417.484 272.981 417.393 273.25 417.393 273.591C417.393 274.057 417.566 274.409 417.911 274.648C418.259 274.883 418.7 275 419.234 275ZM429.023 276.182C428.205 276.182 427.5 275.989 426.909 275.602C426.318 275.216 425.864 274.684 425.545 274.006C425.227 273.328 425.068 272.553 425.068 271.682C425.068 270.795 425.231 270.013 425.557 269.335C425.886 268.653 426.345 268.121 426.932 267.739C427.523 267.352 428.212 267.159 429 267.159C429.614 267.159 430.167 267.273 430.659 267.5C431.152 267.727 431.555 268.045 431.869 268.455C432.184 268.864 432.379 269.341 432.455 269.886H431.114C431.011 269.489 430.784 269.136 430.432 268.83C430.083 268.519 429.614 268.364 429.023 268.364C428.5 268.364 428.042 268.5 427.648 268.773C427.258 269.042 426.953 269.422 426.733 269.915C426.517 270.403 426.409 270.977 426.409 271.636C426.409 272.311 426.515 272.898 426.727 273.398C426.943 273.898 427.246 274.286 427.636 274.562C428.03 274.839 428.492 274.977 429.023 274.977C429.371 274.977 429.688 274.917 429.972 274.795C430.256 274.674 430.496 274.5 430.693 274.273C430.89 274.045 431.03 273.773 431.114 273.455H432.455C432.379 273.97 432.191 274.434 431.892 274.847C431.597 275.256 431.205 275.581 430.716 275.824C430.231 276.062 429.667 276.182 429.023 276.182ZM438.21 267.273V268.409H433.688V267.273H438.21ZM435.006 265.182H436.347V273.5C436.347 273.879 436.402 274.163 436.511 274.352C436.625 274.538 436.769 274.663 436.943 274.727C437.121 274.788 437.309 274.818 437.506 274.818C437.653 274.818 437.775 274.811 437.869 274.795C437.964 274.777 438.04 274.761 438.097 274.75L438.369 275.955C438.278 275.989 438.152 276.023 437.989 276.057C437.826 276.095 437.619 276.114 437.369 276.114C436.991 276.114 436.619 276.032 436.256 275.869C435.896 275.706 435.597 275.458 435.358 275.125C435.123 274.792 435.006 274.371 435.006 273.864V265.182Z" class="fill-black dark:fill-white"/>
<path d="M135.237 257V245.364H136.646V255.75H142.055V257H135.237ZM147.601 257.182C146.813 257.182 146.122 256.994 145.527 256.619C144.936 256.244 144.474 255.72 144.141 255.045C143.811 254.371 143.646 253.583 143.646 252.682C143.646 251.773 143.811 250.979 144.141 250.301C144.474 249.623 144.936 249.097 145.527 248.722C146.122 248.347 146.813 248.159 147.601 248.159C148.389 248.159 149.078 248.347 149.669 248.722C150.264 249.097 150.726 249.623 151.055 250.301C151.389 250.979 151.555 251.773 151.555 252.682C151.555 253.583 151.389 254.371 151.055 255.045C150.726 255.72 150.264 256.244 149.669 256.619C149.078 256.994 148.389 257.182 147.601 257.182ZM147.601 255.977C148.199 255.977 148.692 255.824 149.078 255.517C149.464 255.21 149.75 254.807 149.936 254.307C150.122 253.807 150.214 253.265 150.214 252.682C150.214 252.098 150.122 251.555 149.936 251.051C149.75 250.547 149.464 250.14 149.078 249.83C148.692 249.519 148.199 249.364 147.601 249.364C147.002 249.364 146.51 249.519 146.124 249.83C145.737 250.14 145.451 250.547 145.266 251.051C145.08 251.555 144.987 252.098 144.987 252.682C144.987 253.265 145.08 253.807 145.266 254.307C145.451 254.807 145.737 255.21 146.124 255.517C146.51 255.824 147.002 255.977 147.601 255.977ZM155.283 257L152.624 248.273H154.033L155.919 254.955H156.01L157.874 248.273H159.305L161.146 254.932H161.237L163.124 248.273H164.533L161.874 257H160.555L158.646 250.295H158.51L156.601 257H155.283ZM170.987 257V245.364H178.01V246.614H172.396V250.545H177.646V251.795H172.396V255.75H178.101V257H170.987ZM184.254 248.273V249.409H179.55V248.273H184.254ZM180.959 257V247.068C180.959 246.568 181.076 246.152 181.311 245.818C181.546 245.485 181.851 245.235 182.226 245.068C182.601 244.902 182.997 244.818 183.413 244.818C183.743 244.818 184.012 244.845 184.22 244.898C184.429 244.951 184.584 245 184.686 245.045L184.3 246.205C184.232 246.182 184.137 246.153 184.016 246.119C183.898 246.085 183.743 246.068 183.55 246.068C183.107 246.068 182.786 246.18 182.589 246.403C182.396 246.627 182.3 246.955 182.3 247.386V257H180.959ZM190.02 248.273V249.409H185.315V248.273H190.02ZM186.724 257V247.068C186.724 246.568 186.842 246.152 187.077 245.818C187.312 245.485 187.616 245.235 187.991 245.068C188.366 244.902 188.762 244.818 189.179 244.818C189.509 244.818 189.777 244.845 189.986 244.898C190.194 244.951 190.349 245 190.452 245.045L190.065 246.205C189.997 246.182 189.902 246.153 189.781 246.119C189.664 246.085 189.509 246.068 189.315 246.068C188.872 246.068 188.552 246.18 188.355 246.403C188.162 246.627 188.065 246.955 188.065 247.386V257H186.724ZM195.085 257.182C194.297 257.182 193.606 256.994 193.011 256.619C192.42 256.244 191.958 255.72 191.625 255.045C191.295 254.371 191.131 253.583 191.131 252.682C191.131 251.773 191.295 250.979 191.625 250.301C191.958 249.623 192.42 249.097 193.011 248.722C193.606 248.347 194.297 248.159 195.085 248.159C195.873 248.159 196.563 248.347 197.153 248.722C197.748 249.097 198.21 249.623 198.54 250.301C198.873 250.979 199.04 251.773 199.04 252.682C199.04 253.583 198.873 254.371 198.54 255.045C198.21 255.72 197.748 256.244 197.153 256.619C196.563 256.994 195.873 257.182 195.085 257.182ZM195.085 255.977C195.684 255.977 196.176 255.824 196.562 255.517C196.949 255.21 197.235 254.807 197.42 254.307C197.606 253.807 197.699 253.265 197.699 252.682C197.699 252.098 197.606 251.555 197.42 251.051C197.235 250.547 196.949 250.14 196.562 249.83C196.176 249.519 195.684 249.364 195.085 249.364C194.487 249.364 193.994 249.519 193.608 249.83C193.222 250.14 192.936 250.547 192.75 251.051C192.564 251.555 192.472 252.098 192.472 252.682C192.472 253.265 192.564 253.807 192.75 254.307C192.936 254.807 193.222 255.21 193.608 255.517C193.994 255.824 194.487 255.977 195.085 255.977ZM201.087 257V248.273H202.382V249.591H202.473C202.632 249.159 202.92 248.809 203.337 248.54C203.753 248.271 204.223 248.136 204.746 248.136C204.844 248.136 204.967 248.138 205.115 248.142C205.263 248.146 205.375 248.152 205.45 248.159V249.523C205.405 249.511 205.301 249.494 205.138 249.472C204.979 249.445 204.81 249.432 204.632 249.432C204.208 249.432 203.829 249.521 203.496 249.699C203.166 249.873 202.905 250.116 202.712 250.426C202.522 250.733 202.428 251.083 202.428 251.477V257H201.087ZM211.382 248.273V249.409H206.859V248.273H211.382ZM208.178 246.182H209.518V254.5C209.518 254.879 209.573 255.163 209.683 255.352C209.797 255.538 209.941 255.663 210.115 255.727C210.293 255.788 210.481 255.818 210.678 255.818C210.825 255.818 210.946 255.811 211.041 255.795C211.136 255.777 211.212 255.761 211.268 255.75L211.541 256.955C211.45 256.989 211.323 257.023 211.161 257.057C210.998 257.095 210.791 257.114 210.541 257.114C210.162 257.114 209.791 257.032 209.428 256.869C209.068 256.706 208.768 256.458 208.53 256.125C208.295 255.792 208.178 255.371 208.178 254.864V246.182ZM130.706 276V264.364H132.115V274.75H137.524V276H130.706ZM143.07 276.182C142.282 276.182 141.59 275.994 140.996 275.619C140.405 275.244 139.943 274.72 139.609 274.045C139.28 273.371 139.115 272.583 139.115 271.682C139.115 270.773 139.28 269.979 139.609 269.301C139.943 268.623 140.405 268.097 140.996 267.722C141.59 267.347 142.282 267.159 143.07 267.159C143.857 267.159 144.547 267.347 145.138 267.722C145.732 268.097 146.195 268.623 146.524 269.301C146.857 269.979 147.024 270.773 147.024 271.682C147.024 272.583 146.857 273.371 146.524 274.045C146.195 274.72 145.732 275.244 145.138 275.619C144.547 275.994 143.857 276.182 143.07 276.182ZM143.07 274.977C143.668 274.977 144.161 274.824 144.547 274.517C144.933 274.21 145.219 273.807 145.405 273.307C145.59 272.807 145.683 272.265 145.683 271.682C145.683 271.098 145.59 270.555 145.405 270.051C145.219 269.547 144.933 269.14 144.547 268.83C144.161 268.519 143.668 268.364 143.07 268.364C142.471 268.364 141.979 268.519 141.592 268.83C141.206 269.14 140.92 269.547 140.734 270.051C140.549 270.555 140.456 271.098 140.456 271.682C140.456 272.265 140.549 272.807 140.734 273.307C140.92 273.807 141.206 274.21 141.592 274.517C141.979 274.824 142.471 274.977 143.07 274.977ZM150.751 276L148.092 267.273H149.501L151.388 273.955H151.479L153.342 267.273H154.774L156.615 273.932H156.706L158.592 267.273H160.001L157.342 276H156.024L154.115 269.295H153.979L152.07 276H150.751ZM167.865 264.364V276H166.456V264.364H167.865ZM170.509 276V267.273H171.804V268.636H171.918C172.099 268.17 172.393 267.809 172.798 267.551C173.204 267.29 173.69 267.159 174.259 267.159C174.834 267.159 175.313 267.29 175.696 267.551C176.082 267.809 176.384 268.17 176.599 268.636H176.69C176.914 268.186 177.249 267.828 177.696 267.562C178.143 267.294 178.679 267.159 179.304 267.159C180.084 267.159 180.723 267.403 181.219 267.892C181.715 268.377 181.963 269.133 181.963 270.159V276H180.622V270.159C180.622 269.515 180.446 269.055 180.094 268.778C179.741 268.502 179.327 268.364 178.849 268.364C178.236 268.364 177.76 268.549 177.423 268.92C177.086 269.288 176.918 269.754 176.918 270.318V276H175.554V270.023C175.554 269.527 175.393 269.127 175.071 268.824C174.749 268.517 174.334 268.364 173.827 268.364C173.478 268.364 173.152 268.456 172.849 268.642C172.55 268.828 172.308 269.085 172.122 269.415C171.94 269.741 171.849 270.117 171.849 270.545V276H170.509ZM184.415 279.273V267.273H185.71V268.659H185.869C185.968 268.508 186.104 268.314 186.278 268.08C186.456 267.841 186.71 267.629 187.04 267.443C187.373 267.254 187.824 267.159 188.392 267.159C189.127 267.159 189.775 267.343 190.335 267.71C190.896 268.078 191.333 268.598 191.648 269.273C191.962 269.947 192.119 270.742 192.119 271.659C192.119 272.583 191.962 273.384 191.648 274.062C191.333 274.737 190.898 275.259 190.341 275.631C189.784 275.998 189.142 276.182 188.415 276.182C187.854 276.182 187.405 276.089 187.068 275.903C186.731 275.714 186.472 275.5 186.29 275.261C186.108 275.019 185.968 274.818 185.869 274.659H185.756V279.273H184.415ZM185.733 271.636C185.733 272.295 185.83 272.877 186.023 273.381C186.216 273.881 186.498 274.273 186.869 274.557C187.241 274.837 187.695 274.977 188.233 274.977C188.794 274.977 189.261 274.83 189.636 274.534C190.015 274.235 190.299 273.833 190.489 273.33C190.682 272.822 190.778 272.258 190.778 271.636C190.778 271.023 190.684 270.47 190.494 269.977C190.309 269.481 190.027 269.089 189.648 268.801C189.273 268.509 188.801 268.364 188.233 268.364C187.688 268.364 187.229 268.502 186.858 268.778C186.487 269.051 186.206 269.434 186.017 269.926C185.828 270.415 185.733 270.985 185.733 271.636ZM196.733 276.205C196.18 276.205 195.678 276.1 195.227 275.892C194.777 275.68 194.419 275.375 194.153 274.977C193.888 274.576 193.756 274.091 193.756 273.523C193.756 273.023 193.854 272.617 194.051 272.307C194.248 271.992 194.511 271.746 194.841 271.568C195.17 271.39 195.534 271.258 195.932 271.17C196.333 271.08 196.737 271.008 197.142 270.955C197.672 270.886 198.102 270.835 198.432 270.801C198.765 270.763 199.008 270.701 199.159 270.614C199.314 270.527 199.392 270.375 199.392 270.159V270.114C199.392 269.553 199.239 269.117 198.932 268.807C198.629 268.496 198.169 268.341 197.551 268.341C196.911 268.341 196.409 268.481 196.045 268.761C195.682 269.042 195.426 269.341 195.278 269.659L194.006 269.205C194.233 268.674 194.536 268.261 194.915 267.966C195.297 267.667 195.714 267.458 196.165 267.341C196.619 267.22 197.066 267.159 197.506 267.159C197.786 267.159 198.108 267.193 198.472 267.261C198.839 267.326 199.193 267.46 199.534 267.665C199.879 267.869 200.165 268.178 200.392 268.591C200.619 269.004 200.733 269.557 200.733 270.25V276H199.392V274.818H199.324C199.233 275.008 199.081 275.21 198.869 275.426C198.657 275.642 198.375 275.826 198.023 275.977C197.67 276.129 197.241 276.205 196.733 276.205ZM196.938 275C197.468 275 197.915 274.896 198.278 274.688C198.646 274.479 198.922 274.21 199.108 273.881C199.297 273.551 199.392 273.205 199.392 272.841V271.614C199.335 271.682 199.21 271.744 199.017 271.801C198.828 271.854 198.608 271.902 198.358 271.943C198.112 271.981 197.871 272.015 197.636 272.045C197.405 272.072 197.218 272.095 197.074 272.114C196.725 272.159 196.4 272.233 196.097 272.335C195.797 272.434 195.555 272.583 195.369 272.784C195.188 272.981 195.097 273.25 195.097 273.591C195.097 274.057 195.269 274.409 195.614 274.648C195.962 274.883 196.403 275 196.938 275ZM206.726 276.182C205.908 276.182 205.203 275.989 204.612 275.602C204.021 275.216 203.567 274.684 203.249 274.006C202.93 273.328 202.771 272.553 202.771 271.682C202.771 270.795 202.934 270.013 203.26 269.335C203.589 268.653 204.048 268.121 204.635 267.739C205.226 267.352 205.915 267.159 206.703 267.159C207.317 267.159 207.87 267.273 208.362 267.5C208.855 267.727 209.258 268.045 209.572 268.455C209.887 268.864 210.082 269.341 210.158 269.886H208.817C208.714 269.489 208.487 269.136 208.135 268.83C207.786 268.519 207.317 268.364 206.726 268.364C206.203 268.364 205.745 268.5 205.351 268.773C204.961 269.042 204.656 269.422 204.436 269.915C204.22 270.403 204.112 270.977 204.112 271.636C204.112 272.311 204.218 272.898 204.43 273.398C204.646 273.898 204.949 274.286 205.339 274.562C205.733 274.839 206.196 274.977 206.726 274.977C207.074 274.977 207.391 274.917 207.675 274.795C207.959 274.674 208.199 274.5 208.396 274.273C208.593 274.045 208.733 273.773 208.817 273.455H210.158C210.082 273.97 209.894 274.434 209.595 274.847C209.3 275.256 208.908 275.581 208.419 275.824C207.934 276.062 207.37 276.182 206.726 276.182ZM215.913 267.273V268.409H211.391V267.273H215.913ZM212.709 265.182H214.05V273.5C214.05 273.879 214.105 274.163 214.214 274.352C214.328 274.538 214.472 274.663 214.646 274.727C214.824 274.788 215.012 274.818 215.209 274.818C215.357 274.818 215.478 274.811 215.572 274.795C215.667 274.777 215.743 274.761 215.8 274.75L216.072 275.955C215.982 275.989 215.855 276.023 215.692 276.057C215.529 276.095 215.322 276.114 215.072 276.114C214.694 276.114 214.322 276.032 213.959 275.869C213.599 275.706 213.3 275.458 213.061 275.125C212.826 274.792 212.709 274.371 212.709 273.864V265.182Z" class="fill-black dark:fill-white"/>
<path d="M488.577 298.364V310H487.168V299.841H487.099L484.259 301.727V300.295L487.168 298.364H488.577Z" class="fill-black dark:fill-white"/>
<path d="M483.361 190V188.977L487.202 184.773C487.652 184.28 488.024 183.852 488.315 183.489C488.607 183.121 488.823 182.777 488.963 182.455C489.107 182.129 489.179 181.788 489.179 181.432C489.179 181.023 489.08 180.669 488.884 180.369C488.69 180.07 488.425 179.839 488.088 179.676C487.751 179.513 487.372 179.432 486.952 179.432C486.505 179.432 486.115 179.525 485.781 179.71C485.452 179.892 485.196 180.148 485.014 180.477C484.836 180.807 484.747 181.193 484.747 181.636H483.406C483.406 180.955 483.563 180.356 483.878 179.841C484.192 179.326 484.62 178.924 485.162 178.636C485.707 178.348 486.319 178.205 486.997 178.205C487.679 178.205 488.283 178.348 488.81 178.636C489.336 178.924 489.749 179.312 490.048 179.801C490.348 180.29 490.497 180.833 490.497 181.432C490.497 181.86 490.42 182.278 490.264 182.688C490.113 183.093 489.848 183.545 489.469 184.045C489.094 184.542 488.573 185.148 487.906 185.864L485.293 188.659V188.75H490.702V190H483.361Z" class="fill-black dark:fill-white"/>
<path d="M267.543 310.159C266.793 310.159 266.124 310.03 265.537 309.773C264.954 309.515 264.49 309.157 264.145 308.699C263.804 308.237 263.618 307.701 263.588 307.091H265.02C265.05 307.466 265.179 307.79 265.406 308.062C265.634 308.331 265.931 308.54 266.298 308.688C266.666 308.835 267.073 308.909 267.52 308.909C268.02 308.909 268.463 308.822 268.849 308.648C269.236 308.473 269.539 308.231 269.759 307.92C269.978 307.61 270.088 307.25 270.088 306.841C270.088 306.413 269.982 306.036 269.77 305.71C269.558 305.381 269.247 305.123 268.838 304.938C268.429 304.752 267.929 304.659 267.338 304.659H266.406V303.409H267.338C267.8 303.409 268.205 303.326 268.554 303.159C268.906 302.992 269.181 302.758 269.378 302.455C269.579 302.152 269.679 301.795 269.679 301.386C269.679 300.992 269.592 300.65 269.418 300.358C269.243 300.066 268.997 299.839 268.679 299.676C268.365 299.513 267.993 299.432 267.565 299.432C267.164 299.432 266.785 299.506 266.429 299.653C266.077 299.797 265.789 300.008 265.565 300.284C265.342 300.557 265.221 300.886 265.202 301.273H263.838C263.861 300.663 264.045 300.129 264.389 299.67C264.734 299.208 265.185 298.848 265.741 298.591C266.302 298.333 266.918 298.205 267.588 298.205C268.308 298.205 268.925 298.35 269.44 298.642C269.955 298.93 270.351 299.311 270.628 299.784C270.904 300.258 271.043 300.769 271.043 301.318C271.043 301.973 270.87 302.532 270.526 302.994C270.185 303.456 269.721 303.777 269.134 303.955V304.045C269.868 304.167 270.442 304.479 270.855 304.983C271.268 305.483 271.474 306.102 271.474 306.841C271.474 307.473 271.302 308.042 270.957 308.545C270.616 309.045 270.151 309.439 269.56 309.727C268.969 310.015 268.296 310.159 267.543 310.159Z" class="fill-black dark:fill-white"/>
<path d="M263.299 187.614V186.455L268.413 178.364H269.254V180.159H268.685L264.822 186.273V186.364H271.708V187.614H263.299ZM268.776 190V187.261V186.722V178.364H270.117V190H268.776Z" class="fill-black dark:fill-white"/>
</svg>
